<svg id="svg" version="1.1" xmlns="http://www.w3.org/2000/svg" xmlns:xlink="http://www.w3.org/1999/xlink" width="400" height="400" viewBox="0, 0, 400,400"><g id="svgg"><path id="path0" d="M136.202 166.801 L 65.000 238.001 86.600 259.599 C 98.480 271.477,108.380 281.197,108.600 281.198 C 109.057 281.200,294.000 96.358,294.000 95.900 C 294.000 95.735,274.516 95.600,250.702 95.600 L 207.405 95.600 136.202 166.801 M168.966 265.378 L 130.600 303.556 152.422 325.400 L 174.245 347.244 232.186 289.322 C 264.054 257.465,291.025 230.455,292.122 229.300 L 294.116 227.200 250.724 227.200 L 207.331 227.200 168.966 265.378 M221.400 307.200 C 222.259 308.080,223.052 308.800,223.162 308.800 C 223.272 308.800,222.659 308.080,221.800 307.200 C 220.941 306.320,220.148 305.600,220.038 305.600 C 219.928 305.600,220.541 306.320,221.400 307.200 M231.200 317.000 C 234.384 320.190,237.080 322.800,237.190 322.800 C 237.300 322.800,234.784 320.190,231.600 317.000 C 228.416 313.810,225.720 311.200,225.610 311.200 C 225.500 311.200,228.016 313.810,231.200 317.000 M240.200 326.000 C 241.506 327.320,242.665 328.400,242.775 328.400 C 242.885 328.400,241.906 327.320,240.600 326.000 C 239.294 324.680,238.135 323.600,238.025 323.600 C 237.915 323.600,238.894 324.680,240.200 326.000 M247.183 332.900 C 248.164 333.945,249.019 334.800,249.083 334.800 C 249.384 334.800,249.066 334.441,247.300 332.783 L 245.400 331.000 247.183 332.900 M253.583 339.300 C 255.241 341.066,255.600 341.384,255.600 341.083 C 255.600 341.019,254.745 340.164,253.700 339.183 L 251.800 337.400 253.583 339.300 M260.200 346.000 C 261.283 347.100,262.260 348.000,262.370 348.000 C 262.480 348.000,261.683 347.100,260.600 346.000 C 259.517 344.900,258.540 344.000,258.430 344.000 C 258.320 344.000,259.117 344.900,260.200 346.000 M266.383 352.100 C 268.041 353.866,268.400 354.184,268.400 353.883 C 268.400 353.819,267.545 352.964,266.500 351.983 L 264.600 350.200 266.383 352.100 M272.783 358.500 C 273.764 359.545,274.619 360.400,274.683 360.400 C 274.984 360.400,274.666 360.041,272.900 358.383 L 271.000 356.600 272.783 358.500 M279.600 365.400 C 281.017 366.830,282.267 368.000,282.377 368.000 C 282.487 368.000,281.417 366.830,280.000 365.400 C 278.583 363.970,277.333 362.800,277.223 362.800 C 277.113 362.800,278.183 363.970,279.600 365.400 M285.800 371.600 C 287.550 373.360,289.071 374.800,289.181 374.800 C 289.291 374.800,287.950 373.360,286.200 371.600 C 284.450 369.840,282.929 368.400,282.819 368.400 C 282.709 368.400,284.050 369.840,285.800 371.600 M292.383 378.100 C 293.364 379.145,294.219 380.000,294.283 380.000 C 294.584 380.000,294.266 379.641,292.500 377.983 L 290.600 376.200 292.383 378.100 " stroke="none" fill="#4dc1fa" fill-rule="evenodd"></path><path id="path1" d="M196.114 325.419 L 174.200 347.153 190.802 363.778 L 207.405 380.404 250.946 380.302 L 294.487 380.200 256.258 341.943 L 218.028 303.685 196.114 325.419 " stroke="none" fill="#045297" fill-rule="evenodd"></path><path id="path2" d="M0.000 200.000 L 0.000 400.000 200.000 400.000 L 400.000 400.000 400.000 200.000 L 400.000 0.000 200.000 0.000 L 0.000 0.000 0.000 200.000 M201.800 188.800 L 108.601 282.000 86.601 260.000 L 64.601 238.000 135.800 166.800 L 206.999 95.600 250.999 95.600 L 294.999 95.600 201.800 188.800 M294.431 227.500 C 294.213 227.885,277.054 245.158,256.301 265.885 L 218.568 303.570 256.684 341.684 C 277.648 362.647,294.800 379.934,294.800 380.099 C 294.800 380.265,275.045 380.400,250.899 380.400 L 206.998 380.400 168.600 342.000 L 130.202 303.600 168.600 265.200 L 206.998 226.800 250.913 226.800 C 292.622 226.800,294.808 226.835,294.431 227.500 " stroke="none" fill="#fcfcfc" fill-rule="evenodd"></path><path id="path3" d="M292.185 229.700 L 290.200 231.800 292.300 229.815 C 294.251 227.971,294.583 227.600,294.285 227.600 C 294.222 227.600,293.277 228.545,292.185 229.700 M286.589 235.300 L 283.800 238.200 286.700 235.411 C 289.394 232.820,289.783 232.400,289.489 232.400 C 289.428 232.400,288.123 233.705,286.589 235.300 M280.189 241.700 L 277.400 244.600 280.300 241.811 C 282.994 239.220,283.383 238.800,283.089 238.800 C 283.028 238.800,281.723 240.105,280.189 241.700 M270.585 251.300 L 268.600 253.400 270.700 251.415 C 271.855 250.323,272.800 249.378,272.800 249.315 C 272.800 249.017,272.429 249.349,270.585 251.300 M241.387 280.500 L 239.000 283.000 241.500 280.613 C 242.875 279.299,244.000 278.174,244.000 278.113 C 244.000 277.817,243.605 278.178,241.387 280.500 M234.788 287.100 L 232.200 289.800 234.900 287.212 C 236.385 285.788,237.600 284.573,237.600 284.512 C 237.600 284.217,237.193 284.592,234.788 287.100 M228.589 293.300 L 225.800 296.200 228.700 293.411 C 231.394 290.820,231.783 290.400,231.489 290.400 C 231.428 290.400,230.123 291.705,228.589 293.300 M256.401 341.800 C 277.410 362.920,294.682 380.148,294.783 380.083 C 294.884 380.019,277.694 362.739,256.584 341.683 L 218.202 303.400 256.401 341.800 M190.600 364.000 C 199.618 373.020,207.086 380.400,207.196 380.400 C 207.306 380.400,200.018 373.020,191.000 364.000 C 181.982 354.980,174.514 347.600,174.404 347.600 C 174.294 347.600,181.582 354.980,190.600 364.000 " stroke="none" fill="#b4cee4" fill-rule="evenodd"></path><path id="path4" d="M135.800 166.800 L 64.602 237.999 86.400 259.800 C 98.388 271.790,108.378 281.600,108.599 281.600 C 108.820 281.600,150.850 239.750,202.000 188.600 C 253.150 137.450,294.909 95.600,294.798 95.600 C 294.687 95.600,252.837 137.360,201.799 188.400 C 150.761 239.440,108.822 281.199,108.601 281.198 C 108.381 281.197,98.480 271.477,86.600 259.599 L 65.000 238.001 136.202 166.801 C 175.364 127.640,207.313 95.600,207.202 95.600 C 207.090 95.600,174.960 127.640,135.800 166.800 M206.938 227.106 C 206.684 227.268,226.210 227.353,250.328 227.295 L 294.180 227.190 292.190 229.295 L 290.200 231.400 292.300 229.415 C 293.455 228.323,294.400 227.288,294.400 227.115 C 294.400 226.717,207.564 226.708,206.938 227.106 M202.800 231.108 C 199.369 234.587,200.104 234.217,203.990 230.509 C 205.425 229.139,206.420 228.028,206.200 228.041 C 205.980 228.054,204.450 229.434,202.800 231.108 M286.388 235.100 L 283.800 237.800 286.500 235.212 C 287.985 233.788,289.200 232.573,289.200 232.512 C 289.200 232.217,288.793 232.592,286.388 235.100 M196.622 237.240 C 193.004 240.835,193.493 240.814,197.274 237.213 C 198.883 235.680,200.020 234.438,199.800 234.453 C 199.580 234.469,198.150 235.723,196.622 237.240 M279.988 241.500 L 277.400 244.200 280.100 241.612 C 281.585 240.188,282.800 238.973,282.800 238.912 C 282.800 238.617,282.393 238.992,279.988 241.500 M191.355 242.620 C 190.230 243.819,189.434 244.800,189.587 244.800 C 189.740 244.800,190.810 243.810,191.964 242.600 C 193.119 241.390,193.915 240.409,193.732 240.420 C 193.549 240.431,192.480 241.421,191.355 242.620 M187.600 246.200 C 187.083 246.750,186.756 247.200,186.872 247.200 C 186.988 247.200,187.569 246.750,188.162 246.200 C 188.756 245.650,189.083 245.200,188.890 245.200 C 188.697 245.200,188.117 245.650,187.600 246.200 M273.588 247.859 C 271.920 249.573,271.507 250.145,272.426 249.469 C 273.633 248.579,276.706 245.200,276.307 245.200 C 276.236 245.200,275.012 246.397,273.588 247.859 M184.814 249.233 C 183.889 250.131,183.203 250.937,183.291 251.024 C 183.378 251.112,184.241 250.377,185.208 249.392 C 187.407 247.151,187.091 247.023,184.814 249.233 M181.200 252.600 C 180.683 253.150,180.356 253.600,180.472 253.600 C 180.588 253.600,181.169 253.150,181.762 252.600 C 182.356 252.050,182.683 251.600,182.490 251.600 C 182.297 251.600,181.717 252.050,181.200 252.600 M266.987 254.478 C 264.769 256.780,264.813 256.945,267.127 255.000 C 268.029 254.242,269.813 252.000,269.515 252.000 C 269.438 252.000,268.301 253.115,266.987 254.478 M177.600 256.305 C 174.308 259.675,174.266 260.145,177.538 257.004 C 179.112 255.492,180.400 254.198,180.400 254.128 C 180.400 253.658,179.510 254.349,177.600 256.305 M260.587 260.862 C 259.222 262.270,258.714 262.971,259.400 262.501 C 260.538 261.721,261.582 260.667,262.768 259.100 C 263.795 257.743,262.949 258.427,260.587 260.862 M152.200 281.600 L 130.202 303.601 152.400 325.700 L 174.599 347.800 152.601 325.700 L 130.603 303.600 152.600 281.600 C 164.698 269.500,174.507 259.600,174.397 259.600 C 174.287 259.600,164.298 269.500,152.200 281.600 M254.187 267.268 C 252.101 269.425,252.014 269.573,253.492 268.441 C 254.916 267.351,257.174 264.800,256.715 264.800 C 256.638 264.800,255.501 265.911,254.187 267.268 M247.588 273.890 C 246.165 275.370,245.540 276.140,246.200 275.603 C 247.544 274.507,249.123 272.947,249.949 271.897 C 251.092 270.445,250.084 271.296,247.588 273.890 M241.188 280.300 L 238.600 283.000 241.300 280.412 C 242.785 278.988,244.000 277.773,244.000 277.712 C 244.000 277.417,243.593 277.792,241.188 280.300 M234.788 286.700 L 232.200 289.400 234.900 286.812 C 236.385 285.388,237.600 284.173,237.600 284.112 C 237.600 283.817,237.193 284.192,234.788 286.700 M228.388 293.100 L 225.800 295.800 228.500 293.212 C 229.985 291.788,231.200 290.573,231.200 290.512 C 231.200 290.217,230.793 290.592,228.388 293.100 M221.586 299.878 C 219.991 301.540,219.770 301.884,220.771 301.149 C 221.993 300.251,224.359 297.600,223.938 297.600 C 223.847 297.600,222.789 298.625,221.586 299.878 " stroke="none" fill="#9addfc" fill-rule="evenodd"></path></g></svg>